<svg xmlns="http://www.w3.org/2000/svg" aria-hidden="true" style="position:absolute;width:0;height:0;overflow:hidden">
  <defs>
    <symbol id="icon-menu" viewBox="0 0 32 32">
      <path fill="none" stroke="#fffbfa" stroke-linecap="round" stroke-linejoin="round" stroke-width="1.231" d="M1.231 6.155h29.538M1.231 16.002h29.538M1.231 25.848h29.538" style="stroke:var(--color1, #fffbfa)"/>
    </symbol>
    <symbol id="icon-inst" viewBox="0 0 32 32">
      <path fill="none" stroke="#fffbfa" d="M23.466 7.467h2.133M9.6 1.067h12.8A8.534 8.534 0 0 1 30.933 9.6v12.8a8.534 8.534 0 0 1-8.533 8.533H9.6A8.534 8.534 0 0 1 1.067 22.4V9.6A8.534 8.534 0 0 1 9.6 1.067zM16 22.4a6.403 6.403 0 0 1-4.525-10.927A6.4 6.4 0 1 1 16 22.4z" style="stroke:var(--color1, #fffbfa)"/>
    </symbol>
    <symbol id="icon-cross" viewBox="0 0 32 32">
      <path fill="none" stroke="#fffbfa" stroke-linecap="round" stroke-linejoin="round" stroke-width="1.454" d="M29.853 29.853 2.147 2.147m27.706 0L2.147 29.853" style="stroke:var(--color1, #fffbfa)"/>
    </symbol>
    <symbol id="icon-menu_right" viewBox="0 0 32 32">
      <path fill="#fffbfa" d="M0 4a2 2 0 0 1 2-2h28a2 2 0 0 1 0 4H2a2 2 0 0 1-2-2zm0 24a2 2 0 0 1 2-2h28a2 2 0 0 1 0 4H2a2 2 0 0 1-2-2zm14-14a2 2 0 0 0 0 4h16a2 2 0 0 0 0-4H14z" style="fill:var(--color1, #fffbfa)"/>
    </symbol>
    <symbol id="icon-arrow" viewBox="0 0 32 32">
      <path fill="#fffbfa" d="m3.056 12.39 12-12a1.332 1.332 0 0 1 1.455-.289c.162.067.309.165.433.289l12 12a1.335 1.335 0 0 1 0 1.886 1.335 1.335 0 0 1-1.886 0l-9.723-9.725v26.115a1.335 1.335 0 0 1-2.277.943 1.334 1.334 0 0 1-.391-.943V4.551l-9.723 9.725a1.335 1.335 0 0 1-1.886 0 1.335 1.335 0 0 1 0-1.886z" style="fill:var(--color1, #fffbfa)"/>
    </symbol>
    <symbol id="icon-inst_2black" viewBox="0 0 32 32">
      <path stroke-width="1.333" d="M23.468 7.466h2.133m-16-6.4h12.8a8.534 8.534 0 0 1 8.533 8.533v12.8a8.534 8.534 0 0 1-8.533 8.533h-12.8a8.534 8.534 0 0 1-8.533-8.533v-12.8a8.534 8.534 0 0 1 8.533-8.533zm6.4 21.334a6.4 6.4 0 1 1 0-12.8 6.4 6.4 0 0 1 0 12.8z"/>
    </symbol>
      <symbol id="icon-inst_black" viewBox="0 0 32 32">
      <path d="M9.042 1.983c-3.658.492-6.592 3.442-7.063 7.113-.054.421-.063 1.4-.063 6.771 0 4.037.017 6.412.042 6.654a8.258 8.258 0 0 0 2.396 4.917 8.24 8.24 0 0 0 4.767 2.333c.679.092 12.829.092 13.517 0a8.284 8.284 0 0 0 7.133-7.133c.092-.688.092-12.838 0-13.517a8.306 8.306 0 0 0-1.892-4.296c-1.313-1.571-3.288-2.629-5.358-2.867-.242-.025-2.608-.042-6.708-.038-5.188.004-6.412.017-6.771.063zm13.212 1.229a7.022 7.022 0 0 1 3.858 1.625c1.125.946 1.983 2.375 2.3 3.833.167.787.175 1.196.158 7.579-.012 6.042-.017 6.108-.104 6.571a7.502 7.502 0 0 1-1.208 2.846c-.358.504-1.087 1.233-1.592 1.592a7.487 7.487 0 0 1-2.846 1.208c-.462.087-.529.092-6.592.108-6.408.017-6.762.008-7.558-.167-2.646-.567-4.758-2.679-5.333-5.329-.171-.792-.175-1.087-.158-7.537.013-5.371.025-6.233.079-6.521.3-1.55.925-2.754 1.967-3.796 1.196-1.196 2.629-1.858 4.4-2.029.4-.042 12.238-.025 12.629.017z"/>
      <path d="M23.1 7.046c-.396.112-.758.537-.854.987-.083.412.129.979.462 1.217.383.271.887.338 1.292.162.267-.113.592-.463.683-.729a1.24 1.24 0 0 0-.304-1.313c-.158-.158-.3-.254-.438-.3-.221-.075-.629-.088-.842-.025zm-7.879 1.875a8.912 8.912 0 0 0-1.658.358c-1.95.692-3.592 2.333-4.283 4.283a8.351 8.351 0 0 0-.367 1.787c-.146 1.729.429 3.567 1.55 4.921 1.371 1.663 3.279 2.571 5.412 2.571 1.921 0 3.654-.729 4.983-2.1 1.308-1.342 1.983-2.996 1.983-4.867 0-1.858-.675-3.529-1.962-4.846-1.212-1.25-2.683-1.95-4.421-2.108-.529-.05-.679-.05-1.238 0zm1.862 1.366c2.279.525 3.904 2.196 4.404 4.504.104.496.104 1.671 0 2.167-.262 1.221-.725 2.071-1.592 2.938s-1.717 1.329-2.938 1.592c-.496.104-1.671.104-2.162 0-2.054-.442-3.633-1.796-4.296-3.692-.262-.738-.313-1.046-.313-1.921 0-1.05.133-1.637.558-2.521.817-1.675 2.429-2.85 4.317-3.146.412-.063 1.613-.017 2.021.079z"/>
    </symbol>
    <symbol id="icon-bag" viewBox="0 0 32 32">
      <path d="M29.804 7.837h-6.588V7.51c0-1.992-.76-3.902-2.113-5.311s-3.189-2.2-5.102-2.2c-1.914 0-3.749.791-5.102 2.2S8.786 5.518 8.786 7.51v.327H2.198c-.582 0-1.141.241-1.553.669s-.643 1.01-.643 1.616v19.592c0 .606.231 1.188.643 1.616s.97.669 1.553.669h27.608c.582 0 1.141-.241 1.553-.669s.643-1.01.643-1.616V10.122c0-.606-.231-1.188-.643-1.616s-.97-.669-1.553-.669zM10.667 7.51c0-1.472.562-2.884 1.562-3.925S14.586 1.959 16 1.959s2.771.585 3.771 1.626a5.669 5.669 0 0 1 1.562 3.925v.327H10.666V7.51zm19.451 22.204c0 .087-.033.17-.092.231s-.139.096-.222.096H2.196c-.083 0-.163-.034-.222-.096s-.092-.144-.092-.231V10.122c0-.087.033-.17.092-.231s.139-.096.222-.096h6.588v2.939c0 .26.099.509.276.693s.416.287.665.287.489-.103.665-.287a1 1 0 0 0 .276-.693V9.795h10.667v2.939c0 .26.099.509.276.693s.416.287.665.287c.25 0 .489-.103.666-.287s.276-.433.276-.693V9.795h6.588c.083 0 .163.034.222.096s.092.144.092.231v19.592z"/>
    </symbol>
    <symbol id="icon-search" viewBox="0 0 32 32">
      <path d="m20.135 21.973 8.937 8.935a1.3 1.3 0 1 0 1.837-1.837l-8.937-8.935a11.7 11.7 0 1 0-1.837 1.837zM6.396 19.265A9.097 9.097 0 0 1 7.772 5.267 9.102 9.102 0 0 1 17.88 5.26a9.11 9.11 0 0 1 3.878 9.336 9.097 9.097 0 0 1-2.484 4.661l-.009.009-.009.007a9.103 9.103 0 0 1-12.861-.007z"/>
    </symbol>
  </defs>
</svg>
