<svg aria-hidden="true" style="position: absolute; width: 0; height: 0; overflow: hidden;" version="1.1" xmlns="http://www.w3.org/2000/svg" xmlns:xlink="http://www.w3.org/1999/xlink">
<defs>
<symbol id="icon-arrow_down" viewBox="0 0 32 32">
<path d="M6.292 13.293l9-9c0.093-0.093 0.203-0.167 0.325-0.217s0.251-0.076 0.383-0.076c0.131 0 0.261 0.026 0.383 0.076s0.232 0.124 0.325 0.217l9 9c0.188 0.188 0.293 0.442 0.293 0.707s-0.105 0.52-0.293 0.707c-0.188 0.188-0.442 0.293-0.707 0.293s-0.52-0.105-0.707-0.293l-7.293-7.294v19.586c0 0.265-0.105 0.52-0.293 0.707s-0.442 0.293-0.707 0.293-0.52-0.105-0.707-0.293c-0.188-0.187-0.293-0.442-0.293-0.707v-19.586l-7.293 7.294c-0.188 0.188-0.442 0.293-0.707 0.293s-0.52-0.105-0.707-0.293c-0.188-0.188-0.293-0.442-0.293-0.707s0.105-0.52 0.293-0.707z"></path>
</symbol>
<symbol id="icon-menu_right" viewBox="0 0 32 32">
<path d="M0 4c0-0.53 0.211-1.039 0.586-1.414s0.884-0.586 1.414-0.586h28c0.53 0 1.039 0.211 1.414 0.586s0.586 0.884 0.586 1.414c0 0.53-0.211 1.039-0.586 1.414s-0.884 0.586-1.414 0.586h-28c-0.53 0-1.039-0.211-1.414-0.586s-0.586-0.884-0.586-1.414zM0 28c0-0.53 0.211-1.039 0.586-1.414s0.884-0.586 1.414-0.586h28c0.53 0 1.039 0.211 1.414 0.586s0.586 0.884 0.586 1.414c0 0.53-0.211 1.039-0.586 1.414s-0.884 0.586-1.414 0.586h-28c-0.53 0-1.039-0.211-1.414-0.586s-0.586-0.884-0.586-1.414zM14 14c-0.53 0-1.039 0.211-1.414 0.586s-0.586 0.884-0.586 1.414c0 0.53 0.211 1.039 0.586 1.414s0.884 0.586 1.414 0.586h16c0.53 0 1.039-0.211 1.414-0.586s0.586-0.884 0.586-1.414c0-0.53-0.211-1.039-0.586-1.414s-0.884-0.586-1.414-0.586h-16z"></path>
</symbol>
<symbol id="icon-bag" viewBox="0 0 32 32">
<path d="M29.804 7.837h-6.588v-0.327c0-1.992-0.76-3.902-2.113-5.311s-3.189-2.2-5.102-2.2c-1.914 0-3.749 0.791-5.102 2.2s-2.113 3.319-2.113 5.311v0.327h-6.588c-0.582 0-1.141 0.241-1.553 0.669s-0.643 1.010-0.643 1.616v19.592c0 0.606 0.231 1.188 0.643 1.616s0.97 0.669 1.553 0.669h27.608c0.582 0 1.141-0.241 1.553-0.669s0.643-1.010 0.643-1.616v-19.592c0-0.606-0.231-1.188-0.643-1.616s-0.97-0.669-1.553-0.669zM10.667 7.51c0-1.472 0.562-2.884 1.562-3.925s2.357-1.626 3.771-1.626 2.771 0.585 3.771 1.626c1 1.041 1.562 2.453 1.562 3.925v0.327h-10.667v-0.327zM30.118 29.714c0 0.087-0.033 0.17-0.092 0.231s-0.139 0.096-0.222 0.096h-27.608c-0.083 0-0.163-0.034-0.222-0.096s-0.092-0.144-0.092-0.231v-19.592c0-0.087 0.033-0.17 0.092-0.231s0.139-0.096 0.222-0.096h6.588v2.939c0 0.26 0.099 0.509 0.276 0.693s0.416 0.287 0.665 0.287 0.489-0.103 0.665-0.287c0.177-0.184 0.276-0.433 0.276-0.693v-2.939h10.667v2.939c0 0.26 0.099 0.509 0.276 0.693s0.416 0.287 0.665 0.287c0.25 0 0.489-0.103 0.666-0.287s0.276-0.433 0.276-0.693v-2.939h6.588c0.083 0 0.163 0.034 0.222 0.096s0.092 0.144 0.092 0.231v19.592z"></path>
</symbol>
<symbol id="icon-search" viewBox="0 0 32 32">
<path d="M19.18 20.594l6.875 6.873c0.092 0.098 0.202 0.177 0.325 0.232s0.255 0.084 0.389 0.086 0.268-0.022 0.392-0.073c0.125-0.050 0.238-0.125 0.333-0.22s0.17-0.208 0.22-0.333c0.050-0.125 0.075-0.258 0.073-0.392s-0.032-0.267-0.086-0.389c-0.055-0.123-0.134-0.233-0.232-0.325l-6.875-6.873c1.436-1.797 2.129-4.076 1.937-6.368s-1.254-4.424-2.968-5.958c-1.714-1.534-3.951-2.353-6.251-2.289s-4.487 1.006-6.114 2.633-2.569 3.814-2.633 6.114c-0.064 2.299 0.755 4.536 2.289 6.251s3.665 2.777 5.958 2.968c2.292 0.192 4.571-0.502 6.368-1.937zM8.612 18.512c-0.979-0.979-1.645-2.226-1.915-3.583s-0.132-2.764 0.397-4.043c0.529-1.279 1.426-2.372 2.576-3.142s2.503-1.181 3.887-1.182c1.384-0.001 2.737 0.408 3.889 1.176s2.049 1.86 2.58 3.138 0.671 2.685 0.403 4.043c-0.268 1.358-0.933 2.606-1.911 3.585l-0.007 0.007-0.007 0.005c-1.313 1.31-3.093 2.046-4.948 2.045s-3.634-0.738-4.946-2.050z"></path>
</symbol>
<symbol id="icon-insta" viewBox="0 0 32 32">
<path stroke-linejoin="miter" stroke-linecap="butt" stroke-miterlimit="4" stroke-width="1" d="M23.466 7.467h2.133M9.6 1.067h12.8c2.263 0 4.434 0.899 6.034 2.499s2.499 3.771 2.499 6.034v12.8c0 2.263-0.899 4.434-2.499 6.034s-3.771 2.499-6.034 2.499h-12.8c-2.263 0-4.434-0.899-6.034-2.499s-2.499-3.771-2.499-6.034v-12.8c0-2.263 0.899-4.434 2.499-6.034s3.771-2.499 6.034-2.499zM16 22.4c-1.697 0-3.325-0.674-4.525-1.875s-1.875-2.828-1.875-4.526 0.674-3.325 1.875-4.526c1.2-1.2 2.828-1.874 4.525-1.874s3.325 0.674 4.526 1.874c1.2 1.2 1.875 2.828 1.875 4.526s-0.674 3.325-1.875 4.526c-1.2 1.2-2.828 1.875-4.526 1.875z"></path>
</symbol>
<symbol id="icon-menu" viewBox="0 0 32 32">
<path stroke-linejoin="round" stroke-linecap="round" stroke-miterlimit="4" stroke-width="1" d="M4 8.001h24M4 16.002h24M4 24.002h24"></path>
</symbol>
</defs>
</svg>
