<svg xmlns="http://www.w3.org/2000/svg" aria-hidden="true" style="position:absolute;width:0;height:0;overflow:hidden">
  <defs>
    <symbol id="icon-menu" viewBox="0 0 32 32">
      <path fill="none" stroke="#fffbfa" stroke-linecap="round" stroke-linejoin="round" stroke-width="1.231" d="M1.231 6.155h29.538M1.231 16.002h29.538M1.231 25.848h29.538" style="stroke:var(--color1, #fffbfa)"/>
    </symbol>
    <symbol id="icon-inst" viewBox="0 0 32 32">
      <path fill="none" stroke="#fffbfa" d="M23.466 7.467h2.133M9.6 1.067h12.8A8.534 8.534 0 0 1 30.933 9.6v12.8a8.534 8.534 0 0 1-8.533 8.533H9.6A8.534 8.534 0 0 1 1.067 22.4V9.6A8.534 8.534 0 0 1 9.6 1.067zM16 22.4a6.403 6.403 0 0 1-4.525-10.927A6.4 6.4 0 1 1 16 22.4z" style="stroke:var(--color1, #fffbfa)"/>
    </symbol>
    <symbol id="icon-cross" viewBox="0 0 32 32">
      <path fill="none" stroke="#fffbfa" stroke-linecap="round" stroke-linejoin="round" stroke-width="1.454" d="M29.853 29.853 2.147 2.147m27.706 0L2.147 29.853" style="stroke:var(--color1, #fffbfa)"/>
    </symbol>
    <symbol id="icon-menu_right" viewBox="0 0 32 32">
      <path fill="#fffbfa" d="M0 4a2 2 0 0 1 2-2h28a2 2 0 0 1 0 4H2a2 2 0 0 1-2-2zm0 24a2 2 0 0 1 2-2h28a2 2 0 0 1 0 4H2a2 2 0 0 1-2-2zm14-14a2 2 0 0 0 0 4h16a2 2 0 0 0 0-4H14z" style="fill:var(--color1, #fffbfa)"/>
    </symbol>
    <symbol id="icon-arrow" viewBox="0 0 32 32">
      <path fill="#fffbfa" d="m3.056 12.39 12-12a1.332 1.332 0 0 1 1.455-.289c.162.067.309.165.433.289l12 12a1.335 1.335 0 0 1 0 1.886 1.335 1.335 0 0 1-1.886 0l-9.723-9.725v26.115a1.335 1.335 0 0 1-2.277.943 1.334 1.334 0 0 1-.391-.943V4.551l-9.723 9.725a1.335 1.335 0 0 1-1.886 0 1.335 1.335 0 0 1 0-1.886z" style="fill:var(--color1, #fffbfa)"/>
    </symbol>
    <symbol id="icon-inst_black" viewBox="0 0 32 32">
      <path stroke-width="1.333" d="M23.468 7.466h2.133m-16-6.4h12.8a8.534 8.534 0 0 1 8.533 8.533v12.8a8.534 8.534 0 0 1-8.533 8.533h-12.8a8.534 8.534 0 0 1-8.533-8.533v-12.8a8.534 8.534 0 0 1 8.533-8.533zm6.4 21.334a6.4 6.4 0 1 1 0-12.8 6.4 6.4 0 0 1 0 12.8z"/>
    </symbol>
    <symbol id="icon-bag" viewBox="0 0 32 32">
      <path d="M29.804 7.837h-6.588V7.51c0-1.992-.76-3.902-2.113-5.311s-3.189-2.2-5.102-2.2c-1.914 0-3.749.791-5.102 2.2S8.786 5.518 8.786 7.51v.327H2.198c-.582 0-1.141.241-1.553.669s-.643 1.01-.643 1.616v19.592c0 .606.231 1.188.643 1.616s.97.669 1.553.669h27.608c.582 0 1.141-.241 1.553-.669s.643-1.01.643-1.616V10.122c0-.606-.231-1.188-.643-1.616s-.97-.669-1.553-.669zM10.667 7.51c0-1.472.562-2.884 1.562-3.925S14.586 1.959 16 1.959s2.771.585 3.771 1.626a5.669 5.669 0 0 1 1.562 3.925v.327H10.666V7.51zm19.451 22.204c0 .087-.033.17-.092.231s-.139.096-.222.096H2.196c-.083 0-.163-.034-.222-.096s-.092-.144-.092-.231V10.122c0-.087.033-.17.092-.231s.139-.096.222-.096h6.588v2.939c0 .26.099.509.276.693s.416.287.665.287.489-.103.665-.287a1 1 0 0 0 .276-.693V9.795h10.667v2.939c0 .26.099.509.276.693s.416.287.665.287c.25 0 .489-.103.666-.287s.276-.433.276-.693V9.795h6.588c.083 0 .163.034.222.096s.092.144.092.231v19.592z"/>
    </symbol>
    <symbol id="icon-search" viewBox="0 0 32 32">
      <path d="m20.135 21.973 8.937 8.935a1.3 1.3 0 1 0 1.837-1.837l-8.937-8.935a11.7 11.7 0 1 0-1.837 1.837zM6.396 19.265A9.097 9.097 0 0 1 7.772 5.267 9.102 9.102 0 0 1 17.88 5.26a9.11 9.11 0 0 1 3.878 9.336 9.097 9.097 0 0 1-2.484 4.661l-.009.009-.009.007a9.103 9.103 0 0 1-12.861-.007z"/>
    </symbol>
  </defs>
</svg>
