<svg xmlns="http://www.w3.org/2000/svg" aria-hidden="true" style="position:absolute;width:0;height:0;overflow:hidden">
  <defs>
    <symbol id="icon-menu" viewBox="0 0 32 32">
      <path fill="none" stroke="#fffbfa" stroke-linecap="round" stroke-linejoin="round" stroke-width="1.231" d="M1.231 6.155h29.538M1.231 16.002h29.538M1.231 25.848h29.538" style="stroke:var(--color1, #fffbfa)"/>
    </symbol>
    <symbol id="icon-inst" viewBox="0 0 32 32">
      <path fill="none" stroke="#fffbfa" d="M23.466 7.467h2.133M9.6 1.067h12.8A8.534 8.534 0 0 1 30.933 9.6v12.8a8.534 8.534 0 0 1-8.533 8.533H9.6A8.534 8.534 0 0 1 1.067 22.4V9.6A8.534 8.534 0 0 1 9.6 1.067zM16 22.4a6.403 6.403 0 0 1-4.525-10.927A6.4 6.4 0 1 1 16 22.4z" style="stroke:var(--color1, #fffbfa)"/>
    </symbol>
    <symbol id="icon-cross" viewBox="0 0 32 32">
      <path fill="none" stroke="#fffbfa" stroke-linecap="round" stroke-linejoin="round" stroke-width="1.454" d="M29.853 29.853 2.147 2.147m27.706 0L2.147 29.853" style="stroke:var(--color1, #fffbfa)"/>
    </symbol>
    <symbol id="icon-menu_right" viewBox="0 0 32 32">
      <path fill="#fffbfa" d="M0 4a2 2 0 0 1 2-2h28a2 2 0 0 1 0 4H2a2 2 0 0 1-2-2zm0 24a2 2 0 0 1 2-2h28a2 2 0 0 1 0 4H2a2 2 0 0 1-2-2zm14-14a2 2 0 0 0 0 4h16a2 2 0 0 0 0-4H14z" style="fill:var(--color1, #fffbfa)"/>
    </symbol>
    <symbol id="icon-arrow" viewBox="0 0 32 32">
      <path fill="#fffbfa" d="m3.056 12.39 12-12a1.332 1.332 0 0 1 1.455-.289c.162.067.309.165.433.289l12 12a1.335 1.335 0 0 1 0 1.886 1.335 1.335 0 0 1-1.886 0l-9.723-9.725v26.115a1.335 1.335 0 0 1-2.277.943 1.334 1.334 0 0 1-.391-.943V4.551l-9.723 9.725a1.335 1.335 0 0 1-1.886 0 1.335 1.335 0 0 1 0-1.886z" style="fill:var(--color1, #fffbfa)"/>
    </symbol>
    <symbol id="icon-inst-black" viewBox="0 0 32 32">
      <path stroke-linejoin="miter" stroke-linecap="butt" stroke-miterlimit="4" stroke-width="1.3333" d="M23.468 7.466h2.133M9.601 1.066h12.8c2.263 0 4.434 0.899 6.034 2.499s2.499 3.771 2.499 6.034v12.8c0 2.263-0.899 4.434-2.499 6.034s-3.771 2.499-6.034 2.499h-12.8c-2.263 0-4.434-0.899-6.034-2.499s-2.499-3.771-2.499-6.034v-12.8c0-2.263 0.899-4.434 2.499-6.034s3.771-2.499 6.034-2.499zM16.001 22.4c-1.697 0-3.325-0.674-4.526-1.875s-1.875-2.828-1.875-4.525c0-1.697 0.674-3.325 1.875-4.525s2.828-1.875 4.526-1.875c1.697 0 3.325 0.674 4.525 1.875s1.875 2.828 1.875 4.525c0 1.697-0.674 3.325-1.875 4.525s-2.828 1.875-4.525 1.875z"></path>
    </symbol>
    <symbol id="icon-inst_black_2" viewBox="0 0 32 32">
      <path d="M16 0c-4.347 0-4.889 0.020-6.596 0.096-1.704 0.080-2.864 0.348-3.884 0.744-1.052 0.408-1.945 0.956-2.835 1.845s-1.439 1.781-1.845 2.835c-0.396 1.020-0.665 2.18-0.744 3.884-0.080 1.707-0.096 2.249-0.096 6.596s0.020 4.889 0.096 6.596c0.080 1.703 0.348 2.864 0.744 3.884 0.408 1.051 0.956 1.945 1.845 2.835 0.889 0.888 1.781 1.439 2.835 1.845 1.021 0.395 2.181 0.665 3.884 0.744 1.707 0.080 2.249 0.096 6.596 0.096s4.889-0.020 6.596-0.096c1.703-0.080 2.864-0.349 3.884-0.744 1.051-0.408 1.945-0.957 2.835-1.845 0.888-0.889 1.439-1.78 1.845-2.835 0.395-1.020 0.665-2.181 0.744-3.884 0.080-1.707 0.096-2.249 0.096-6.596s-0.020-4.889-0.096-6.596c-0.080-1.703-0.349-2.865-0.744-3.884-0.408-1.052-0.957-1.945-1.845-2.835-0.889-0.889-1.78-1.439-2.835-1.845-1.020-0.396-2.181-0.665-3.884-0.744-1.707-0.080-2.249-0.096-6.596-0.096zM16 2.88c4.271 0 4.78 0.021 6.467 0.095 1.56 0.073 2.407 0.332 2.969 0.553 0.749 0.289 1.28 0.636 1.843 1.195 0.559 0.56 0.905 1.092 1.195 1.841 0.219 0.563 0.48 1.409 0.551 2.969 0.076 1.688 0.093 2.195 0.093 6.467s-0.020 4.78-0.099 6.467c-0.081 1.56-0.341 2.407-0.561 2.969-0.299 0.749-0.639 1.28-1.199 1.843-0.559 0.559-1.099 0.905-1.84 1.195-0.56 0.219-1.42 0.48-2.98 0.551-1.699 0.076-2.199 0.093-6.479 0.093-4.281 0-4.781-0.020-6.479-0.099-1.561-0.081-2.421-0.341-2.981-0.561-0.759-0.299-1.28-0.639-1.839-1.199-0.561-0.559-0.92-1.099-1.2-1.84-0.22-0.56-0.479-1.42-0.56-2.98-0.060-1.68-0.081-2.199-0.081-6.459 0-4.261 0.021-4.781 0.081-6.481 0.081-1.56 0.34-2.419 0.56-2.979 0.28-0.76 0.639-1.28 1.2-1.841 0.559-0.559 1.080-0.919 1.839-1.197 0.56-0.221 1.401-0.481 2.961-0.561 1.7-0.060 2.2-0.080 6.479-0.080zM16 7.784c-4.54 0-8.216 3.68-8.216 8.216 0 4.54 3.68 8.216 8.216 8.216 4.54 0 8.216-3.68 8.216-8.216 0-4.54-3.68-8.216-8.216-8.216zM16 21.333c-2.947 0-5.333-2.387-5.333-5.333s2.387-5.333 5.333-5.333 5.333 2.387 5.333 5.333-2.387 5.333-5.333 5.333zM26.461 7.46c0 1.060-0.861 1.92-1.92 1.92-1.060 0-1.92-0.861-1.92-1.92s0.861-1.919 1.92-1.919c1.057-0.001 1.92 0.86 1.92 1.919z"></path>
    </symbol>
    <symbol id="icon-bag" viewBox="0 0 32 32">
      <path d="M29.804 7.837h-6.588V7.51c0-1.992-.76-3.902-2.113-5.311s-3.189-2.2-5.102-2.2c-1.914 0-3.749.791-5.102 2.2S8.786 5.518 8.786 7.51v.327H2.198c-.582 0-1.141.241-1.553.669s-.643 1.01-.643 1.616v19.592c0 .606.231 1.188.643 1.616s.97.669 1.553.669h27.608c.582 0 1.141-.241 1.553-.669s.643-1.01.643-1.616V10.122c0-.606-.231-1.188-.643-1.616s-.97-.669-1.553-.669zM10.667 7.51c0-1.472.562-2.884 1.562-3.925S14.586 1.959 16 1.959s2.771.585 3.771 1.626a5.669 5.669 0 0 1 1.562 3.925v.327H10.666V7.51zm19.451 22.204c0 .087-.033.17-.092.231s-.139.096-.222.096H2.196c-.083 0-.163-.034-.222-.096s-.092-.144-.092-.231V10.122c0-.087.033-.17.092-.231s.139-.096.222-.096h6.588v2.939c0 .26.099.509.276.693s.416.287.665.287.489-.103.665-.287a1 1 0 0 0 .276-.693V9.795h10.667v2.939c0 .26.099.509.276.693s.416.287.665.287c.25 0 .489-.103.666-.287s.276-.433.276-.693V9.795h6.588c.083 0 .163.034.222.096s.092.144.092.231v19.592z"/>
    </symbol>
    <symbol id="icon-search" viewBox="0 0 32 32">
      <path d="m20.135 21.973 8.937 8.935a1.3 1.3 0 1 0 1.837-1.837l-8.937-8.935a11.7 11.7 0 1 0-1.837 1.837zM6.396 19.265A9.097 9.097 0 0 1 7.772 5.267 9.102 9.102 0 0 1 17.88 5.26a9.11 9.11 0 0 1 3.878 9.336 9.097 9.097 0 0 1-2.484 4.661l-.009.009-.009.007a9.103 9.103 0 0 1-12.861-.007z"/>
    </symbol>
  </defs>
</svg>
