<svg xmlns="http://www.w3.org/2000/svg" aria-hidden="true" style="position:absolute;width:0;height:0;overflow:hidden">
  <defs>
    <symbol id="icon-search" viewBox="0 0 32 32">
      <path d="m19.18 20.594 6.875 6.873a1.013 1.013 0 0 0 .714.318.993.993 0 0 0 .725-.293.992.992 0 0 0 .293-.725 1.001 1.001 0 0 0-.318-.714l-6.875-6.873a8.998 8.998 0 0 0-1.031-12.326 8.998 8.998 0 0 0-12.365.344A9 9 0 0 0 19.18 20.594zM8.612 18.511A6.998 6.998 0 0 1 9.67 7.743a6.996 6.996 0 0 1 7.776-.006 6.996 6.996 0 0 1 2.983 7.181 6.993 6.993 0 0 1-1.911 3.586l-.007.007-.007.005a7.001 7.001 0 0 1-9.894-.005z"/>
    </symbol>
    <symbol id="icon-bag" viewBox="0 0 32 32">
      <path d="M29.804 7.837h-6.588V7.51c0-1.992-.76-3.902-2.113-5.311s-3.189-2.2-5.102-2.2c-1.914 0-3.749.791-5.102 2.2S8.786 5.518 8.786 7.51v.327H2.198c-.582 0-1.141.241-1.553.669s-.643 1.01-.643 1.616v19.592c0 .606.231 1.188.643 1.616s.97.669 1.553.669h27.608c.582 0 1.141-.241 1.553-.669s.643-1.01.643-1.616V10.122c0-.606-.231-1.188-.643-1.616s-.97-.669-1.553-.669zM10.667 7.51c0-1.472.562-2.884 1.562-3.925S14.586 1.959 16 1.959s2.771.585 3.771 1.626a5.669 5.669 0 0 1 1.562 3.925v.327H10.666V7.51zm19.451 22.204c0 .087-.033.17-.092.231s-.139.096-.222.096H2.196c-.083 0-.163-.034-.222-.096s-.092-.144-.092-.231V10.122c0-.087.033-.17.092-.231s.139-.096.222-.096h6.588v2.939c0 .26.099.509.276.693s.416.287.665.287.489-.103.665-.287a1 1 0 0 0 .276-.693V9.795h10.667v2.939c0 .26.099.509.276.693s.416.287.665.287c.25 0 .489-.103.666-.287s.276-.433.276-.693V9.795h6.588c.083 0 .163.034.222.096s.092.144.092.231v19.592z"/>
    </symbol>
    <symbol id="icon-arrow" viewBox="0 0 32 32">
      <path d="m6.292 13.293 9-9A.991.991 0 0 1 16 4a1.01 1.01 0 0 1 .708.293l9 9a1 1 0 1 1-1.414 1.414l-7.293-7.294v19.586a.997.997 0 0 1-1 1 .997.997 0 0 1-1-1V7.413l-7.293 7.294a1 1 0 1 1-1.414-1.414z"/>
    </symbol>
    <symbol id="icon-menu-right" viewBox="0 0 32 32">
      <path d="M5.333 8a1.335 1.335 0 0 1 1.334-1.334h18.667a1.335 1.335 0 0 1 .943 2.277c-.25.25-.589.391-.943.391H6.667A1.335 1.335 0 0 1 5.333 8zm0 16a1.335 1.335 0 0 1 1.334-1.334h18.667a1.334 1.334 0 0 1 0 2.668H6.667A1.334 1.334 0 0 1 5.333 24zm9.334-9.333a1.334 1.334 0 0 0 0 2.668h10.667a1.334 1.334 0 0 0 0-2.668H14.667z"/>
    </symbol>
    <symbol id="icon-menu" viewBox="0 0 32 32">
      <path stroke-linecap="round" stroke-linejoin="round" d="M4 8.001h24M4 16.002h24m-24 8h24"/>
    </symbol>
    <symbol id="icon-cross" viewBox="0 0 32 32">
      <path stroke-linecap="round" stroke-linejoin="round" stroke-width=".8" d="M23.619 23.619 8.381 8.381m15.238 0L8.381 23.619"/>
    </symbol>
    <symbol id="icon-inst" viewBox="0 0 32 32">
      <path d="M23.466 7.467h2.133M9.6 1.067h12.8A8.534 8.534 0 0 1 30.933 9.6v12.8a8.534 8.534 0 0 1-8.533 8.533H9.6A8.534 8.534 0 0 1 1.067 22.4V9.6A8.534 8.534 0 0 1 9.6 1.067zM16 22.4a6.403 6.403 0 0 1-4.525-10.927A6.4 6.4 0 1 1 16 22.4z"/>
    </symbol>
  </defs>
</svg>
